<svg width="18" height="18" viewBox="0 0 18 18" fill="none" xmlns="http://www.w3.org/2000/svg">
<path d="M4.13965 0C4.37355 0 4.60509 0.0199249 4.8291 0.0585938C5.04681 0.0936788 5.26733 0.149879 5.48145 0.223633C5.77395 0.325333 5.99515 0.570647 6.06445 0.873047L7.2959 6.24023C7.3634 6.53543 7.27896 6.84583 7.06836 7.06543C6.94538 7.19289 6.94125 7.19572 5.82715 7.7793C6.73074 9.73588 8.30177 11.3008 10.2188 12.1738C10.803 11.0584 10.8062 11.0537 10.9346 10.9316C11.1533 10.721 11.4637 10.6375 11.7598 10.7041L17.127 11.9355C17.4294 12.0048 17.6747 12.2251 17.7764 12.5176C17.8501 12.7297 17.9054 12.9501 17.9414 13.1748C17.9792 13.398 18 13.6282 18 13.8604C17.9998 16.1434 16.1425 17.9998 13.8604 18C6.21755 18 0 11.7824 0 4.13965C0.000190459 1.85663 1.85663 0.000190458 4.13965 0ZM4.13965 1.7998C2.84933 1.8 1.8 2.84933 1.7998 4.13965C1.7998 10.7888 7.21025 16.2002 13.8604 16.2002C15.1507 16.2 16.2 15.1507 16.2002 13.8604C16.2002 13.7605 16.1942 13.6617 16.1807 13.5645L12.0225 12.6104C11.9397 12.7679 11.8502 12.9414 11.7656 13.1016C11.3563 13.8843 11.0627 14.4531 10.3018 14.1484C7.32654 13.1045 4.89737 10.6742 3.83887 7.66309C3.51757 6.95659 4.12947 6.63547 4.90527 6.23047C5.06359 6.14771 5.23405 6.05849 5.38965 5.97754L4.43457 1.81934C4.33557 1.80674 4.23775 1.7998 4.13965 1.7998ZM9.90039 3.59961C12.3815 3.59982 14.4004 5.61844 14.4004 8.09961C14.4004 8.59731 13.9977 9 13.5 9C13.0023 9 12.5996 8.59731 12.5996 8.09961C12.5996 6.61114 11.3888 5.39963 9.90039 5.39941C9.40372 5.39941 9.00021 4.99752 9 4.5C9 4.0023 9.40359 3.59961 9.90039 3.59961ZM9.90039 0C14.3668 0.000211831 17.9998 3.63322 18 8.09961C18 8.59731 17.5973 9 17.0996 9C16.6021 8.99979 16.2002 8.59718 16.2002 8.09961C16.2 4.62682 13.3732 1.80002 9.90039 1.7998C9.40372 1.7998 9.00021 1.39791 9 0.900391C9 0.402691 9.40359 0 9.90039 0Z" fill="black"/>
</svg>
