<svg width="19" height="20" viewBox="0 0 19 20" fill="none" xmlns="http://www.w3.org/2000/svg">
<path d="M1.50836 8.31C1.4726 8.47875 1.3812 8.63061 1.24883 8.74122C1.11646 8.85183 0.950785 8.91479 0.778363 8.92H0.608363C0.509033 8.89867 0.414906 8.8579 0.331404 8.80003C0.247903 8.74217 0.176678 8.66835 0.121835 8.58283C0.0669918 8.49731 0.0296139 8.40178 0.0118552 8.30175C-0.00590346 8.20173 -0.00369186 8.09917 0.0183626 8C0.391441 6.33734 1.20807 4.80683 2.38144 3.57118C3.5548 2.33553 5.04106 1.4409 6.68222 0.982402C8.32339 0.523903 10.0581 0.518664 11.702 0.967243C13.3459 1.41582 14.8376 2.30146 16.0184 3.53V0.78C16.017 0.67888 16.0357 0.57849 16.0731 0.484563C16.1106 0.390636 16.1662 0.305012 16.2368 0.23258C16.3074 0.160149 16.3915 0.102329 16.4844 0.0624223C16.5774 0.0225159 16.6772 0.00130472 16.7784 0C16.9852 0 17.1836 0.0821784 17.3299 0.228457C17.4762 0.374735 17.5584 0.573131 17.5584 0.78V5.43C17.5557 5.63513 17.4724 5.83097 17.3264 5.97509C17.1804 6.11921 16.9835 6.20002 16.7784 6.2H12.0484C11.9392 6.21242 11.8286 6.20164 11.7239 6.16836C11.6192 6.13508 11.5227 6.08005 11.4408 6.00688C11.3588 5.93372 11.2932 5.84406 11.2483 5.74378C11.2034 5.6435 11.1802 5.53487 11.1802 5.425C11.1802 5.31513 11.2034 5.2065 11.2483 5.10622C11.2932 5.00594 11.3588 4.91628 11.4408 4.84312C11.5227 4.76995 11.6192 4.71492 11.7239 4.68164C11.8286 4.64836 11.9392 4.63758 12.0484 4.65H14.9384C13.9588 3.60721 12.7138 2.85078 11.337 2.46187C9.96014 2.07296 8.5034 2.06623 7.12302 2.44242C5.74265 2.8186 4.49074 3.5635 3.5016 4.5972C2.51245 5.63091 1.8234 6.9144 1.50836 8.31ZM17.8384 11.03C17.7391 11.0081 17.6365 11.0064 17.5366 11.0249C17.4366 11.0434 17.3414 11.0818 17.2566 11.1377C17.1717 11.1937 17.099 11.2661 17.0426 11.3506C16.9862 11.4352 16.9474 11.5302 16.9284 11.63C16.6364 13.0554 15.9555 14.3721 14.9612 15.4342C13.9668 16.4964 12.6978 17.2625 11.2948 17.6477C9.89176 18.0329 8.40947 18.0221 7.01218 17.6165C5.61489 17.211 4.35716 16.4265 3.37836 15.35H6.37836C6.58523 15.35 6.78363 15.2678 6.92991 15.1215C7.07618 14.9753 7.15836 14.7769 7.15836 14.57C7.15837 14.468 7.13813 14.3671 7.09881 14.273C7.05949 14.1789 7.00187 14.0936 6.92931 14.022C6.85675 13.9503 6.77068 13.8938 6.6761 13.8557C6.58152 13.8176 6.48032 13.7987 6.37836 13.8H2.03836C1.93641 13.7987 1.8352 13.8176 1.74062 13.8557C1.64605 13.8938 1.55998 13.9503 1.48741 14.022C1.41485 14.0936 1.35724 14.1789 1.31792 14.273C1.2786 14.3671 1.25835 14.468 1.25836 14.57V19.07C1.24594 19.1792 1.25673 19.2897 1.29001 19.3944C1.32329 19.4991 1.37831 19.5956 1.45148 19.6776C1.52465 19.7596 1.61431 19.8252 1.71458 19.8701C1.81486 19.915 1.92349 19.9382 2.03336 19.9382C2.14323 19.9382 2.25187 19.915 2.35214 19.8701C2.45242 19.8252 2.54208 19.7596 2.61525 19.6776C2.68841 19.5956 2.74344 19.4991 2.77672 19.3944C2.81 19.2897 2.82078 19.1792 2.80836 19.07V16.97C4.03269 18.1053 5.53677 18.8948 7.16657 19.2576C8.79637 19.6204 10.4933 19.5435 12.0836 19.0348C13.6739 18.5261 15.1004 17.6038 16.2171 16.3624C17.3337 15.121 18.1003 13.6051 18.4384 11.97C18.4648 11.8687 18.4701 11.763 18.4538 11.6596C18.4375 11.5562 18.4 11.4572 18.3437 11.369C18.2873 11.2807 18.2134 11.205 18.1264 11.1467C18.0395 11.0884 17.9414 11.0486 17.8384 11.03Z" fill="#0049C1"/>
</svg>
