<svg width="18" height="14" viewBox="0 0 18 14" fill="none" xmlns="http://www.w3.org/2000/svg">
<path d="M16.969 3.81176H14.9573L14.3749 2.38235C13.7926 0.952941 12.4161 0 10.8278 0H6.48667C4.89843 0 3.52196 0.952941 2.93961 2.38235L2.4102 3.81176H0.398433C0.133727 3.81176 -0.0780374 4.07647 0.027845 4.34118L0.23961 5.13529C0.292551 5.29412 0.451374 5.45294 0.610198 5.45294H1.29843C0.821963 5.82353 0.557257 6.40588 0.557257 7.09412V8.73529C0.557257 9.26471 0.769022 9.79412 1.08667 10.1647V12.0176C1.08667 12.6 1.56314 13.1294 2.19843 13.1294H3.3102C3.89255 13.1294 4.42196 12.6529 4.42196 12.0176V10.9059H13.1043V12.0176C13.1043 12.6 13.5808 13.1294 14.2161 13.1294H15.3278C15.9102 13.1294 16.4396 12.6529 16.4396 12.0176V10.1647C16.7573 9.79412 16.969 9.26471 16.969 8.73529V7.09412C16.969 6.45882 16.6514 5.87647 16.2278 5.45294H16.9161C17.1278 5.45294 17.2867 5.34706 17.2867 5.13529L17.4984 4.34118C17.4455 4.07647 17.2337 3.81176 16.969 3.81176ZM5.00432 3.17647C5.26902 2.54118 5.85137 2.17059 6.53961 2.17059H10.8808C11.569 2.17059 12.1514 2.59412 12.4161 3.17647L13.1043 4.87059H4.31608L5.00432 3.17647ZM3.25726 8.68235C2.62196 8.68235 2.14549 8.25882 2.14549 7.62353C2.14549 6.98823 2.56902 6.56471 3.25726 6.56471C3.94549 6.56471 4.89843 7.51765 4.89843 8.20588C4.89843 8.78823 3.89255 8.68235 3.25726 8.68235ZM14.1102 8.68235C13.4749 8.68235 12.469 8.78823 12.469 8.15294C12.469 7.51765 13.422 6.51176 14.1102 6.51176C14.7455 6.51176 15.222 6.93529 15.222 7.57059C15.222 8.25882 14.7984 8.68235 14.1102 8.68235Z" fill="#0049C1"/>
</svg>
