<svg width="17" height="18" viewBox="0 0 17 18" fill="none" xmlns="http://www.w3.org/2000/svg">
<g clip-path="url(#clip0_2001_93)">
<path fill-rule="evenodd" clip-rule="evenodd" d="M1.63923 8.15627H4.54324C4.69647 5.82285 5.46291 3.9305 6.22294 2.58928C6.34853 2.36763 6.4742 2.16056 6.59727 1.96855C3.95519 2.76859 1.96076 5.19301 1.63923 8.15627ZM4.54325 9.84373H1.63923C1.96076 12.807 3.95524 15.2315 6.59737 16.0315C6.47428 15.8395 6.34857 15.6323 6.22294 15.4106C5.46292 14.0693 4.6965 12.1771 4.54325 9.84373ZM6.14153 9.84373H10.8584C10.7091 11.7962 10.0628 13.391 9.41043 14.5424C9.08503 15.1166 8.76033 15.5764 8.5 15.91C8.23967 15.5764 7.91497 15.1166 7.58956 14.5424C6.93713 13.391 6.29084 11.7962 6.14153 9.84373ZM10.8585 8.15627H6.14151C6.29082 6.20377 6.93711 4.60887 7.58956 3.45749C7.91497 2.88327 8.23967 2.42342 8.5 2.08991C8.76033 2.42342 9.08503 2.88327 9.41043 3.45749C10.0629 4.60887 10.7092 6.20377 10.8585 8.15627ZM12.4567 9.84373C12.3035 12.1771 11.5371 14.0693 10.7771 15.4106C10.6514 15.6323 10.5257 15.8395 10.4026 16.0315C13.0447 15.2315 15.0393 12.807 15.3608 9.84373H12.4567ZM15.3608 8.15627H12.4567C12.3035 5.82285 11.5371 3.9305 10.7771 2.58928C10.6514 2.36763 10.5258 2.16056 10.4027 1.96853C13.0449 2.76858 15.0393 5.19301 15.3608 8.15627ZM8.5 0C3.80557 0 0 4.02943 0 9C0 13.9706 3.80557 18 8.5 18C13.1945 18 17 13.9706 17 9C17 4.02943 13.1945 0 8.5 0Z" fill="black"/>
</g>
<defs>
<clipPath id="clip0_2001_93">
<rect width="17" height="18" fill="white"/>
</clipPath>
</defs>
</svg>
